<mxfile host="Electron" modified="2023-09-08T15:29:55.610Z" agent="Mozilla/5.0 (Windows NT 10.0; Win64; x64) AppleWebKit/537.36 (KHTML, like Gecko) draw.io/21.6.8 Chrome/114.0.5735.289 Electron/25.5.0 Safari/537.36" etag="JS6-J8FnmhSFpHuAII5b" version="21.6.8" type="device">
  <diagram name="Page-1" id="j6ZUwTwEuw8l7XssZwEK">
    <mxGraphModel dx="2590" dy="1515" grid="1" gridSize="10" guides="1" tooltips="1" connect="1" arrows="1" fold="1" page="1" pageScale="1" pageWidth="1600" pageHeight="900" math="0" shadow="0">
      <root>
        <mxCell id="0" />
        <mxCell id="1" parent="0" />
        <mxCell id="_EfbOmLes6nvlu2SDe32-2" value="" style="ellipse;html=1;shape=startState;fillColor=#000000;strokeColor=#ff0000;" parent="1" vertex="1">
          <mxGeometry x="370" y="95" width="30" height="30" as="geometry" />
        </mxCell>
        <mxCell id="_EfbOmLes6nvlu2SDe32-3" value="" style="edgeStyle=orthogonalEdgeStyle;html=1;verticalAlign=bottom;endArrow=open;endSize=8;strokeColor=#ff0000;rounded=0;entryX=0.5;entryY=0;entryDx=0;entryDy=0;" parent="1" source="_EfbOmLes6nvlu2SDe32-2" target="_EfbOmLes6nvlu2SDe32-9" edge="1">
          <mxGeometry relative="1" as="geometry">
            <mxPoint x="385" y="185" as="targetPoint" />
          </mxGeometry>
        </mxCell>
        <mxCell id="_EfbOmLes6nvlu2SDe32-6" style="edgeStyle=orthogonalEdgeStyle;rounded=0;orthogonalLoop=1;jettySize=auto;html=1;entryX=0;entryY=0.5;entryDx=0;entryDy=0;endArrow=none;endFill=0;dashed=1;" parent="1" source="_EfbOmLes6nvlu2SDe32-5" target="_EfbOmLes6nvlu2SDe32-2" edge="1">
          <mxGeometry relative="1" as="geometry" />
        </mxCell>
        <mxCell id="_EfbOmLes6nvlu2SDe32-5" value="Logged in user in user dashboard" style="shape=note;whiteSpace=wrap;html=1;backgroundOutline=1;darkOpacity=0.05;" parent="1" vertex="1">
          <mxGeometry x="100" y="60" width="140" height="100" as="geometry" />
        </mxCell>
        <mxCell id="_EfbOmLes6nvlu2SDe32-20" style="edgeStyle=orthogonalEdgeStyle;rounded=0;orthogonalLoop=1;jettySize=auto;html=1;entryX=0.5;entryY=0;entryDx=0;entryDy=0;" parent="1" source="_EfbOmLes6nvlu2SDe32-9" target="_EfbOmLes6nvlu2SDe32-10" edge="1">
          <mxGeometry relative="1" as="geometry" />
        </mxCell>
        <mxCell id="_EfbOmLes6nvlu2SDe32-9" value="choose interaction" style="rounded=1;whiteSpace=wrap;html=1;" parent="1" vertex="1">
          <mxGeometry x="325" y="200" width="120" height="60" as="geometry" />
        </mxCell>
        <mxCell id="_EfbOmLes6nvlu2SDe32-12" value="" style="edgeStyle=orthogonalEdgeStyle;rounded=0;orthogonalLoop=1;jettySize=auto;html=1;entryX=0.5;entryY=0;entryDx=0;entryDy=0;" parent="1" source="_EfbOmLes6nvlu2SDe32-10" target="_EfbOmLes6nvlu2SDe32-13" edge="1">
          <mxGeometry relative="1" as="geometry">
            <mxPoint x="385" y="430" as="targetPoint" />
          </mxGeometry>
        </mxCell>
        <mxCell id="_EfbOmLes6nvlu2SDe32-19" style="edgeStyle=orthogonalEdgeStyle;rounded=0;orthogonalLoop=1;jettySize=auto;html=1;exitX=1;exitY=0.5;exitDx=0;exitDy=0;entryX=0;entryY=0.5;entryDx=0;entryDy=0;" parent="1" source="_EfbOmLes6nvlu2SDe32-10" target="_EfbOmLes6nvlu2SDe32-18" edge="1">
          <mxGeometry relative="1" as="geometry">
            <Array as="points">
              <mxPoint x="480" y="340" />
              <mxPoint x="480" y="170" />
              <mxPoint x="1390" y="170" />
            </Array>
          </mxGeometry>
        </mxCell>
        <mxCell id="_EfbOmLes6nvlu2SDe32-10" value="view profile" style="rhombus;whiteSpace=wrap;html=1;" parent="1" vertex="1">
          <mxGeometry x="320" y="300" width="130" height="80" as="geometry" />
        </mxCell>
        <mxCell id="_EfbOmLes6nvlu2SDe32-30" value="" style="edgeStyle=orthogonalEdgeStyle;rounded=0;orthogonalLoop=1;jettySize=auto;html=1;" parent="1" source="_EfbOmLes6nvlu2SDe32-13" target="_EfbOmLes6nvlu2SDe32-29" edge="1">
          <mxGeometry relative="1" as="geometry" />
        </mxCell>
        <mxCell id="_EfbOmLes6nvlu2SDe32-64" style="edgeStyle=orthogonalEdgeStyle;rounded=0;orthogonalLoop=1;jettySize=auto;html=1;exitX=1;exitY=0.5;exitDx=0;exitDy=0;entryX=0;entryY=0.5;entryDx=0;entryDy=0;" parent="1" source="_EfbOmLes6nvlu2SDe32-13" target="_EfbOmLes6nvlu2SDe32-63" edge="1">
          <mxGeometry relative="1" as="geometry" />
        </mxCell>
        <mxCell id="_EfbOmLes6nvlu2SDe32-13" value="check rewards" style="rhombus;whiteSpace=wrap;html=1;" parent="1" vertex="1">
          <mxGeometry x="320" y="460" width="130" height="80" as="geometry" />
        </mxCell>
        <mxCell id="_EfbOmLes6nvlu2SDe32-22" style="edgeStyle=orthogonalEdgeStyle;rounded=0;orthogonalLoop=1;jettySize=auto;html=1;exitX=0.5;exitY=1;exitDx=0;exitDy=0;entryX=1;entryY=0.5;entryDx=0;entryDy=0;" parent="1" source="_EfbOmLes6nvlu2SDe32-18" target="_EfbOmLes6nvlu2SDe32-21" edge="1">
          <mxGeometry relative="1" as="geometry" />
        </mxCell>
        <mxCell id="_EfbOmLes6nvlu2SDe32-18" value="display profile" style="rounded=1;whiteSpace=wrap;html=1;" parent="1" vertex="1">
          <mxGeometry x="1700" y="140" width="120" height="60" as="geometry" />
        </mxCell>
        <mxCell id="_EfbOmLes6nvlu2SDe32-23" style="edgeStyle=orthogonalEdgeStyle;rounded=0;orthogonalLoop=1;jettySize=auto;html=1;exitX=0.5;exitY=1;exitDx=0;exitDy=0;entryX=0;entryY=0.5;entryDx=0;entryDy=0;" parent="1" source="_EfbOmLes6nvlu2SDe32-21" target="_EfbOmLes6nvlu2SDe32-31" edge="1">
          <mxGeometry relative="1" as="geometry">
            <mxPoint x="600" y="310" as="targetPoint" />
          </mxGeometry>
        </mxCell>
        <mxCell id="_EfbOmLes6nvlu2SDe32-21" value="update profile" style="rounded=1;whiteSpace=wrap;html=1;" parent="1" vertex="1">
          <mxGeometry x="540" y="220" width="120" height="60" as="geometry" />
        </mxCell>
        <mxCell id="_EfbOmLes6nvlu2SDe32-25" value="profile update" style="rounded=1;whiteSpace=wrap;html=1;" parent="1" vertex="1">
          <mxGeometry x="1690" y="580" width="120" height="60" as="geometry" />
        </mxCell>
        <mxCell id="_EfbOmLes6nvlu2SDe32-71" style="edgeStyle=orthogonalEdgeStyle;rounded=0;orthogonalLoop=1;jettySize=auto;html=1;exitX=1;exitY=0.5;exitDx=0;exitDy=0;" parent="1" source="_EfbOmLes6nvlu2SDe32-29" edge="1">
          <mxGeometry relative="1" as="geometry">
            <mxPoint x="540" y="700" as="targetPoint" />
          </mxGeometry>
        </mxCell>
        <mxCell id="_EfbOmLes6nvlu2SDe32-91" style="edgeStyle=orthogonalEdgeStyle;rounded=0;orthogonalLoop=1;jettySize=auto;html=1;exitX=0.5;exitY=1;exitDx=0;exitDy=0;entryX=0;entryY=0.5;entryDx=0;entryDy=0;" parent="1" source="_EfbOmLes6nvlu2SDe32-29" target="_EfbOmLes6nvlu2SDe32-9" edge="1">
          <mxGeometry relative="1" as="geometry">
            <mxPoint x="385" y="810" as="targetPoint" />
          </mxGeometry>
        </mxCell>
        <mxCell id="_EfbOmLes6nvlu2SDe32-29" value="check bookings" style="rhombus;whiteSpace=wrap;html=1;" parent="1" vertex="1">
          <mxGeometry x="320" y="660" width="130" height="80" as="geometry" />
        </mxCell>
        <mxCell id="_EfbOmLes6nvlu2SDe32-33" style="edgeStyle=orthogonalEdgeStyle;rounded=0;orthogonalLoop=1;jettySize=auto;html=1;exitX=1;exitY=0.5;exitDx=0;exitDy=0;" parent="1" source="_EfbOmLes6nvlu2SDe32-31" edge="1">
          <mxGeometry relative="1" as="geometry">
            <mxPoint x="890" y="350" as="targetPoint" />
          </mxGeometry>
        </mxCell>
        <mxCell id="_EfbOmLes6nvlu2SDe32-31" value="Edit Profile" style="rounded=1;whiteSpace=wrap;html=1;" parent="1" vertex="1">
          <mxGeometry x="720" y="320" width="120" height="60" as="geometry" />
        </mxCell>
        <mxCell id="_EfbOmLes6nvlu2SDe32-36" style="edgeStyle=orthogonalEdgeStyle;rounded=0;orthogonalLoop=1;jettySize=auto;html=1;exitX=0.5;exitY=1;exitDx=0;exitDy=0;entryX=0.5;entryY=0;entryDx=0;entryDy=0;" parent="1" source="_EfbOmLes6nvlu2SDe32-34" target="_EfbOmLes6nvlu2SDe32-35" edge="1">
          <mxGeometry relative="1" as="geometry" />
        </mxCell>
        <mxCell id="_EfbOmLes6nvlu2SDe32-38" style="edgeStyle=orthogonalEdgeStyle;rounded=0;orthogonalLoop=1;jettySize=auto;html=1;exitX=1;exitY=0.5;exitDx=0;exitDy=0;entryX=0;entryY=0.5;entryDx=0;entryDy=0;entryPerimeter=0;" parent="1" source="_EfbOmLes6nvlu2SDe32-34" target="_EfbOmLes6nvlu2SDe32-37" edge="1">
          <mxGeometry relative="1" as="geometry" />
        </mxCell>
        <mxCell id="_EfbOmLes6nvlu2SDe32-34" value="update FirstName" style="rhombus;whiteSpace=wrap;html=1;" parent="1" vertex="1">
          <mxGeometry x="890" y="310" width="130" height="80" as="geometry" />
        </mxCell>
        <mxCell id="_EfbOmLes6nvlu2SDe32-41" style="edgeStyle=orthogonalEdgeStyle;rounded=0;orthogonalLoop=1;jettySize=auto;html=1;exitX=0;exitY=0.5;exitDx=0;exitDy=0;" parent="1" source="_EfbOmLes6nvlu2SDe32-35" target="_EfbOmLes6nvlu2SDe32-31" edge="1">
          <mxGeometry relative="1" as="geometry" />
        </mxCell>
        <mxCell id="_EfbOmLes6nvlu2SDe32-35" value="enter new FirstName" style="rounded=1;whiteSpace=wrap;html=1;" parent="1" vertex="1">
          <mxGeometry x="895" y="430" width="120" height="60" as="geometry" />
        </mxCell>
        <mxCell id="_EfbOmLes6nvlu2SDe32-48" style="edgeStyle=orthogonalEdgeStyle;rounded=0;orthogonalLoop=1;jettySize=auto;html=1;exitX=1;exitY=0.5;exitDx=0;exitDy=0;entryX=0;entryY=0.5;entryDx=0;entryDy=0;" parent="1" source="_EfbOmLes6nvlu2SDe32-37" target="_EfbOmLes6nvlu2SDe32-44" edge="1">
          <mxGeometry relative="1" as="geometry" />
        </mxCell>
        <mxCell id="_EfbOmLes6nvlu2SDe32-37" value="update LastName" style="rhombus;whiteSpace=wrap;html=1;" parent="1" vertex="1">
          <mxGeometry x="1050" y="310" width="130" height="80" as="geometry" />
        </mxCell>
        <mxCell id="_EfbOmLes6nvlu2SDe32-39" style="edgeStyle=orthogonalEdgeStyle;rounded=0;orthogonalLoop=1;jettySize=auto;html=1;exitX=0.5;exitY=1;exitDx=0;exitDy=0;entryX=0.5;entryY=0;entryDx=0;entryDy=0;" parent="1" target="_EfbOmLes6nvlu2SDe32-40" edge="1">
          <mxGeometry relative="1" as="geometry">
            <mxPoint x="1115" y="390" as="sourcePoint" />
          </mxGeometry>
        </mxCell>
        <mxCell id="_EfbOmLes6nvlu2SDe32-42" style="edgeStyle=orthogonalEdgeStyle;rounded=0;orthogonalLoop=1;jettySize=auto;html=1;exitX=0.5;exitY=1;exitDx=0;exitDy=0;" parent="1" source="_EfbOmLes6nvlu2SDe32-40" edge="1">
          <mxGeometry relative="1" as="geometry">
            <mxPoint x="780" y="380" as="targetPoint" />
          </mxGeometry>
        </mxCell>
        <mxCell id="_EfbOmLes6nvlu2SDe32-40" value="enter new LastName" style="rounded=1;whiteSpace=wrap;html=1;" parent="1" vertex="1">
          <mxGeometry x="1055" y="430" width="120" height="60" as="geometry" />
        </mxCell>
        <mxCell id="_EfbOmLes6nvlu2SDe32-54" style="edgeStyle=orthogonalEdgeStyle;rounded=0;orthogonalLoop=1;jettySize=auto;html=1;entryX=0;entryY=0.5;entryDx=0;entryDy=0;" parent="1" source="_EfbOmLes6nvlu2SDe32-44" target="_EfbOmLes6nvlu2SDe32-51" edge="1">
          <mxGeometry relative="1" as="geometry" />
        </mxCell>
        <mxCell id="_EfbOmLes6nvlu2SDe32-44" value="update PhoneNumber" style="rhombus;whiteSpace=wrap;html=1;" parent="1" vertex="1">
          <mxGeometry x="1210" y="310" width="130" height="80" as="geometry" />
        </mxCell>
        <mxCell id="_EfbOmLes6nvlu2SDe32-49" style="edgeStyle=orthogonalEdgeStyle;rounded=0;orthogonalLoop=1;jettySize=auto;html=1;exitX=0.5;exitY=1;exitDx=0;exitDy=0;entryX=0.5;entryY=1;entryDx=0;entryDy=0;" parent="1" source="_EfbOmLes6nvlu2SDe32-45" target="_EfbOmLes6nvlu2SDe32-31" edge="1">
          <mxGeometry relative="1" as="geometry" />
        </mxCell>
        <mxCell id="_EfbOmLes6nvlu2SDe32-45" value="enter new PhoneNumber" style="rounded=1;whiteSpace=wrap;html=1;" parent="1" vertex="1">
          <mxGeometry x="1215" y="430" width="120" height="60" as="geometry" />
        </mxCell>
        <mxCell id="_EfbOmLes6nvlu2SDe32-46" style="edgeStyle=orthogonalEdgeStyle;rounded=0;orthogonalLoop=1;jettySize=auto;html=1;exitX=0.5;exitY=1;exitDx=0;exitDy=0;entryX=0.5;entryY=0;entryDx=0;entryDy=0;" parent="1" target="_EfbOmLes6nvlu2SDe32-45" edge="1">
          <mxGeometry relative="1" as="geometry">
            <mxPoint x="1275" y="390" as="sourcePoint" />
          </mxGeometry>
        </mxCell>
        <mxCell id="_EfbOmLes6nvlu2SDe32-58" style="edgeStyle=orthogonalEdgeStyle;rounded=0;orthogonalLoop=1;jettySize=auto;html=1;exitX=1;exitY=0.5;exitDx=0;exitDy=0;" parent="1" source="_EfbOmLes6nvlu2SDe32-51" target="_EfbOmLes6nvlu2SDe32-57" edge="1">
          <mxGeometry relative="1" as="geometry" />
        </mxCell>
        <mxCell id="_EfbOmLes6nvlu2SDe32-51" value="update Password" style="rhombus;whiteSpace=wrap;html=1;" parent="1" vertex="1">
          <mxGeometry x="1360" y="310" width="130" height="80" as="geometry" />
        </mxCell>
        <mxCell id="Gx4bqHsXZrf4fRZskT7e-23" style="edgeStyle=orthogonalEdgeStyle;rounded=0;orthogonalLoop=1;jettySize=auto;html=1;entryX=0.5;entryY=1;entryDx=0;entryDy=0;" edge="1" parent="1" source="_EfbOmLes6nvlu2SDe32-52" target="_EfbOmLes6nvlu2SDe32-31">
          <mxGeometry relative="1" as="geometry">
            <Array as="points">
              <mxPoint x="1425" y="510" />
              <mxPoint x="780" y="510" />
            </Array>
          </mxGeometry>
        </mxCell>
        <mxCell id="_EfbOmLes6nvlu2SDe32-52" value="enter new PhoneNumber" style="rounded=1;whiteSpace=wrap;html=1;" parent="1" vertex="1">
          <mxGeometry x="1365" y="430" width="120" height="60" as="geometry" />
        </mxCell>
        <mxCell id="_EfbOmLes6nvlu2SDe32-53" style="edgeStyle=orthogonalEdgeStyle;rounded=0;orthogonalLoop=1;jettySize=auto;html=1;exitX=0.5;exitY=1;exitDx=0;exitDy=0;entryX=0.5;entryY=0;entryDx=0;entryDy=0;" parent="1" target="_EfbOmLes6nvlu2SDe32-52" edge="1">
          <mxGeometry relative="1" as="geometry">
            <mxPoint x="1425" y="390" as="sourcePoint" />
          </mxGeometry>
        </mxCell>
        <mxCell id="_EfbOmLes6nvlu2SDe32-61" style="edgeStyle=orthogonalEdgeStyle;rounded=0;orthogonalLoop=1;jettySize=auto;html=1;exitX=0.5;exitY=1;exitDx=0;exitDy=0;entryX=1;entryY=0.5;entryDx=0;entryDy=0;" parent="1" source="_EfbOmLes6nvlu2SDe32-57" target="_EfbOmLes6nvlu2SDe32-60" edge="1">
          <mxGeometry relative="1" as="geometry" />
        </mxCell>
        <mxCell id="_EfbOmLes6nvlu2SDe32-57" value="check for field changes" style="rounded=1;whiteSpace=wrap;html=1;" parent="1" vertex="1">
          <mxGeometry x="1700" y="320" width="120" height="60" as="geometry" />
        </mxCell>
        <mxCell id="_EfbOmLes6nvlu2SDe32-62" style="edgeStyle=orthogonalEdgeStyle;rounded=0;orthogonalLoop=1;jettySize=auto;html=1;entryX=0;entryY=0.5;entryDx=0;entryDy=0;" parent="1" source="_EfbOmLes6nvlu2SDe32-60" target="_EfbOmLes6nvlu2SDe32-25" edge="1">
          <mxGeometry relative="1" as="geometry">
            <Array as="points">
              <mxPoint x="1430" y="610" />
            </Array>
          </mxGeometry>
        </mxCell>
        <mxCell id="_EfbOmLes6nvlu2SDe32-60" value="saves changes" style="rounded=1;whiteSpace=wrap;html=1;" parent="1" vertex="1">
          <mxGeometry x="1370" y="523" width="120" height="60" as="geometry" />
        </mxCell>
        <mxCell id="_EfbOmLes6nvlu2SDe32-63" value="view current rewards" style="rounded=1;whiteSpace=wrap;html=1;" parent="1" vertex="1">
          <mxGeometry x="540" y="560" width="120" height="60" as="geometry" />
        </mxCell>
        <mxCell id="_EfbOmLes6nvlu2SDe32-67" style="edgeStyle=orthogonalEdgeStyle;rounded=0;orthogonalLoop=1;jettySize=auto;html=1;entryX=0;entryY=0.5;entryDx=0;entryDy=0;exitX=0;exitY=0.25;exitDx=0;exitDy=0;" parent="1" source="_EfbOmLes6nvlu2SDe32-68" target="_EfbOmLes6nvlu2SDe32-9" edge="1">
          <mxGeometry relative="1" as="geometry">
            <Array as="points">
              <mxPoint x="1260" y="685" />
              <mxPoint x="1260" y="550" />
              <mxPoint x="305" y="550" />
              <mxPoint x="305" y="230" />
            </Array>
            <mxPoint x="1320" y="580" as="sourcePoint" />
          </mxGeometry>
        </mxCell>
        <mxCell id="_EfbOmLes6nvlu2SDe32-69" style="edgeStyle=orthogonalEdgeStyle;rounded=0;orthogonalLoop=1;jettySize=auto;html=1;exitX=1;exitY=0.5;exitDx=0;exitDy=0;entryX=0;entryY=0.5;entryDx=0;entryDy=0;" parent="1" source="_EfbOmLes6nvlu2SDe32-63" target="_EfbOmLes6nvlu2SDe32-68" edge="1">
          <mxGeometry relative="1" as="geometry">
            <mxPoint x="885.0049999999999" y="619.9199999999998" as="sourcePoint" />
          </mxGeometry>
        </mxCell>
        <mxCell id="_EfbOmLes6nvlu2SDe32-68" value="display rewards" style="rounded=1;whiteSpace=wrap;html=1;" parent="1" vertex="1">
          <mxGeometry x="1690" y="670" width="120" height="60" as="geometry" />
        </mxCell>
        <mxCell id="_EfbOmLes6nvlu2SDe32-78" value="" style="edgeStyle=orthogonalEdgeStyle;rounded=0;orthogonalLoop=1;jettySize=auto;html=1;" parent="1" source="_EfbOmLes6nvlu2SDe32-72" target="_EfbOmLes6nvlu2SDe32-77" edge="1">
          <mxGeometry relative="1" as="geometry" />
        </mxCell>
        <mxCell id="_EfbOmLes6nvlu2SDe32-80" style="edgeStyle=orthogonalEdgeStyle;rounded=0;orthogonalLoop=1;jettySize=auto;html=1;exitX=1;exitY=0.5;exitDx=0;exitDy=0;entryX=0;entryY=0.5;entryDx=0;entryDy=0;" parent="1" source="_EfbOmLes6nvlu2SDe32-72" target="_EfbOmLes6nvlu2SDe32-79" edge="1">
          <mxGeometry relative="1" as="geometry" />
        </mxCell>
        <mxCell id="_EfbOmLes6nvlu2SDe32-72" value="choose type of booking" style="rounded=1;whiteSpace=wrap;html=1;" parent="1" vertex="1">
          <mxGeometry x="540" y="670" width="120" height="60" as="geometry" />
        </mxCell>
        <mxCell id="_EfbOmLes6nvlu2SDe32-86" style="edgeStyle=orthogonalEdgeStyle;rounded=0;orthogonalLoop=1;jettySize=auto;html=1;exitX=1;exitY=0.5;exitDx=0;exitDy=0;" parent="1" source="_EfbOmLes6nvlu2SDe32-75" edge="1">
          <mxGeometry relative="1" as="geometry">
            <mxPoint x="2050" y="790" as="targetPoint" />
          </mxGeometry>
        </mxCell>
        <mxCell id="_EfbOmLes6nvlu2SDe32-75" value="check for current bookings" style="rounded=1;whiteSpace=wrap;html=1;" parent="1" vertex="1">
          <mxGeometry x="1690" y="760" width="120" height="60" as="geometry" />
        </mxCell>
        <mxCell id="_EfbOmLes6nvlu2SDe32-82" style="edgeStyle=orthogonalEdgeStyle;rounded=0;orthogonalLoop=1;jettySize=auto;html=1;exitX=1;exitY=0.5;exitDx=0;exitDy=0;entryX=0;entryY=0.5;entryDx=0;entryDy=0;" parent="1" source="_EfbOmLes6nvlu2SDe32-77" target="_EfbOmLes6nvlu2SDe32-88" edge="1">
          <mxGeometry relative="1" as="geometry" />
        </mxCell>
        <mxCell id="_EfbOmLes6nvlu2SDe32-93" style="edgeStyle=orthogonalEdgeStyle;rounded=0;orthogonalLoop=1;jettySize=auto;html=1;exitX=0;exitY=0.5;exitDx=0;exitDy=0;entryX=0;entryY=0.75;entryDx=0;entryDy=0;" parent="1" source="_EfbOmLes6nvlu2SDe32-77" target="_EfbOmLes6nvlu2SDe32-72" edge="1">
          <mxGeometry relative="1" as="geometry" />
        </mxCell>
        <mxCell id="_EfbOmLes6nvlu2SDe32-77" value="past booking" style="rhombus;whiteSpace=wrap;html=1;rounded=1;" parent="1" vertex="1">
          <mxGeometry x="535" y="760" width="130" height="80" as="geometry" />
        </mxCell>
        <mxCell id="_EfbOmLes6nvlu2SDe32-81" style="edgeStyle=orthogonalEdgeStyle;rounded=0;orthogonalLoop=1;jettySize=auto;html=1;exitX=1;exitY=0.5;exitDx=0;exitDy=0;entryX=0;entryY=0.5;entryDx=0;entryDy=0;" parent="1" source="_EfbOmLes6nvlu2SDe32-79" target="_EfbOmLes6nvlu2SDe32-75" edge="1">
          <mxGeometry relative="1" as="geometry" />
        </mxCell>
        <mxCell id="_EfbOmLes6nvlu2SDe32-92" style="edgeStyle=orthogonalEdgeStyle;rounded=0;orthogonalLoop=1;jettySize=auto;html=1;exitX=0.5;exitY=0;exitDx=0;exitDy=0;entryX=0.5;entryY=0;entryDx=0;entryDy=0;" parent="1" source="_EfbOmLes6nvlu2SDe32-79" target="_EfbOmLes6nvlu2SDe32-72" edge="1">
          <mxGeometry relative="1" as="geometry">
            <Array as="points">
              <mxPoint x="788" y="650" />
              <mxPoint x="600" y="650" />
            </Array>
          </mxGeometry>
        </mxCell>
        <mxCell id="_EfbOmLes6nvlu2SDe32-79" value="current booking" style="rhombus;whiteSpace=wrap;html=1;rounded=1;" parent="1" vertex="1">
          <mxGeometry x="720" y="670" width="135" height="80" as="geometry" />
        </mxCell>
        <mxCell id="_EfbOmLes6nvlu2SDe32-90" style="edgeStyle=orthogonalEdgeStyle;rounded=0;orthogonalLoop=1;jettySize=auto;html=1;entryX=0;entryY=0.75;entryDx=0;entryDy=0;" parent="1" source="_EfbOmLes6nvlu2SDe32-83" target="_EfbOmLes6nvlu2SDe32-9" edge="1">
          <mxGeometry relative="1" as="geometry">
            <mxPoint x="320" y="240" as="targetPoint" />
            <Array as="points">
              <mxPoint x="2110" y="900" />
              <mxPoint x="305" y="900" />
              <mxPoint x="305" y="245" />
            </Array>
          </mxGeometry>
        </mxCell>
        <mxCell id="_EfbOmLes6nvlu2SDe32-83" value="display booking" style="rounded=1;whiteSpace=wrap;html=1;" parent="1" vertex="1">
          <mxGeometry x="2050" y="760" width="120" height="60" as="geometry" />
        </mxCell>
        <mxCell id="_EfbOmLes6nvlu2SDe32-87" style="edgeStyle=orthogonalEdgeStyle;rounded=0;orthogonalLoop=1;jettySize=auto;html=1;exitX=1;exitY=0.5;exitDx=0;exitDy=0;" parent="1" target="_EfbOmLes6nvlu2SDe32-83" edge="1">
          <mxGeometry relative="1" as="geometry">
            <mxPoint x="1995" y="790" as="sourcePoint" />
          </mxGeometry>
        </mxCell>
        <mxCell id="_EfbOmLes6nvlu2SDe32-89" style="edgeStyle=orthogonalEdgeStyle;rounded=0;orthogonalLoop=1;jettySize=auto;html=1;exitX=1;exitY=0.5;exitDx=0;exitDy=0;entryX=0;entryY=0.5;entryDx=0;entryDy=0;" parent="1" source="_EfbOmLes6nvlu2SDe32-88" target="_EfbOmLes6nvlu2SDe32-83" edge="1">
          <mxGeometry relative="1" as="geometry">
            <Array as="points">
              <mxPoint x="1928" y="860" />
              <mxPoint x="1928" y="790" />
            </Array>
            <mxPoint x="1927.5" y="828.3199999999999" as="targetPoint" />
          </mxGeometry>
        </mxCell>
        <mxCell id="_EfbOmLes6nvlu2SDe32-88" value="check for past bookings" style="rounded=1;whiteSpace=wrap;html=1;" parent="1" vertex="1">
          <mxGeometry x="1690" y="830" width="120" height="60" as="geometry" />
        </mxCell>
        <mxCell id="_EfbOmLes6nvlu2SDe32-94" value="Customer" style="swimlane;whiteSpace=wrap;html=1;" parent="1" vertex="1">
          <mxGeometry x="90" width="1520" height="890" as="geometry" />
        </mxCell>
        <mxCell id="Gx4bqHsXZrf4fRZskT7e-3" value="No" style="text;html=1;strokeColor=none;fillColor=none;align=center;verticalAlign=middle;whiteSpace=wrap;rounded=0;" vertex="1" parent="_EfbOmLes6nvlu2SDe32-94">
          <mxGeometry x="295" y="400" width="60" height="30" as="geometry" />
        </mxCell>
        <mxCell id="Gx4bqHsXZrf4fRZskT7e-4" value="No" style="text;html=1;strokeColor=none;fillColor=none;align=center;verticalAlign=middle;whiteSpace=wrap;rounded=0;" vertex="1" parent="_EfbOmLes6nvlu2SDe32-94">
          <mxGeometry x="290" y="580" width="60" height="30" as="geometry" />
        </mxCell>
        <mxCell id="Gx4bqHsXZrf4fRZskT7e-5" value="No" style="text;html=1;strokeColor=none;fillColor=none;align=center;verticalAlign=middle;whiteSpace=wrap;rounded=0;" vertex="1" parent="_EfbOmLes6nvlu2SDe32-94">
          <mxGeometry x="230" y="760" width="60" height="30" as="geometry" />
        </mxCell>
        <mxCell id="Gx4bqHsXZrf4fRZskT7e-6" value="Yes" style="text;html=1;strokeColor=none;fillColor=none;align=center;verticalAlign=middle;whiteSpace=wrap;rounded=0;" vertex="1" parent="_EfbOmLes6nvlu2SDe32-94">
          <mxGeometry x="370" y="480" width="60" height="30" as="geometry" />
        </mxCell>
        <mxCell id="Gx4bqHsXZrf4fRZskT7e-7" value="Yes" style="text;html=1;strokeColor=none;fillColor=none;align=center;verticalAlign=middle;whiteSpace=wrap;rounded=0;" vertex="1" parent="_EfbOmLes6nvlu2SDe32-94">
          <mxGeometry x="355" y="340" width="60" height="30" as="geometry" />
        </mxCell>
        <mxCell id="Gx4bqHsXZrf4fRZskT7e-8" value="Yes" style="text;html=1;strokeColor=none;fillColor=none;align=center;verticalAlign=middle;whiteSpace=wrap;rounded=0;" vertex="1" parent="_EfbOmLes6nvlu2SDe32-94">
          <mxGeometry x="370" y="670" width="60" height="30" as="geometry" />
        </mxCell>
        <mxCell id="Gx4bqHsXZrf4fRZskT7e-9" value="No" style="text;html=1;strokeColor=none;fillColor=none;align=center;verticalAlign=middle;whiteSpace=wrap;rounded=0;" vertex="1" parent="_EfbOmLes6nvlu2SDe32-94">
          <mxGeometry x="360" y="750" width="60" height="30" as="geometry" />
        </mxCell>
        <mxCell id="Gx4bqHsXZrf4fRZskT7e-11" value="Yes" style="text;html=1;strokeColor=none;fillColor=none;align=center;verticalAlign=middle;whiteSpace=wrap;rounded=0;" vertex="1" parent="_EfbOmLes6nvlu2SDe32-94">
          <mxGeometry x="870" y="390" width="60" height="30" as="geometry" />
        </mxCell>
        <mxCell id="Gx4bqHsXZrf4fRZskT7e-12" value="No" style="text;html=1;strokeColor=none;fillColor=none;align=center;verticalAlign=middle;whiteSpace=wrap;rounded=0;" vertex="1" parent="_EfbOmLes6nvlu2SDe32-94">
          <mxGeometry x="912" y="311" width="60" height="30" as="geometry" />
        </mxCell>
        <mxCell id="_EfbOmLes6nvlu2SDe32-95" value="System" style="swimlane;whiteSpace=wrap;html=1;" parent="1" vertex="1">
          <mxGeometry x="1590" width="780" height="900" as="geometry" />
        </mxCell>
        <mxCell id="Gx4bqHsXZrf4fRZskT7e-24" value="Field Changes?" style="rhombus;whiteSpace=wrap;html=1;" vertex="1" parent="_EfbOmLes6nvlu2SDe32-95">
          <mxGeometry x="106" y="420" width="130" height="80" as="geometry" />
        </mxCell>
        <mxCell id="Gx4bqHsXZrf4fRZskT7e-26" value="No" style="text;html=1;strokeColor=none;fillColor=none;align=center;verticalAlign=middle;whiteSpace=wrap;rounded=0;" vertex="1" parent="_EfbOmLes6nvlu2SDe32-95">
          <mxGeometry x="260" y="410" width="60" height="30" as="geometry" />
        </mxCell>
        <mxCell id="Gx4bqHsXZrf4fRZskT7e-25" style="edgeStyle=orthogonalEdgeStyle;rounded=0;orthogonalLoop=1;jettySize=auto;html=1;exitX=1;exitY=0.5;exitDx=0;exitDy=0;entryX=1;entryY=0.5;entryDx=0;entryDy=0;" edge="1" parent="1" source="Gx4bqHsXZrf4fRZskT7e-24" target="_EfbOmLes6nvlu2SDe32-9">
          <mxGeometry relative="1" as="geometry">
            <Array as="points">
              <mxPoint x="1846" y="460" />
              <mxPoint x="1846" y="100" />
              <mxPoint x="460" y="100" />
              <mxPoint x="460" y="230" />
            </Array>
          </mxGeometry>
        </mxCell>
      </root>
    </mxGraphModel>
  </diagram>
</mxfile>
